<svg xmlns="http://www.w3.org/2000/svg" xmlns:xlink="http://www.w3.org/1999/xlink" viewBox="0 0 1672 1672" width="1672" height="1672" preserveAspectRatio="xMidYMid meet" style="width: 100%; height: 100%; transform: translate3d(0px, 0px, 0px); content-visibility: visible;"><defs><clipPath id="__lottie_element_2"><rect width="1672" height="1672" x="0" y="0"></rect></clipPath></defs><g clipPath="url(#__lottie_element_2)"><g style="display: block;" transform="matrix(1,0,0,1,836,836)" opacity="1"><g opacity="1" transform="matrix(1,0,0,1,0,0)"><path fill="rgb(255,87,59)" fill-opacity="1" d=" M4,-674.9110717773438 C4,-741.7400512695312 58.25996017456055,-796 125.08895111083984,-796 C125.08895111083984,-796 674.9110717773438,-796 674.9110717773438,-796 C741.7400512695312,-796 796,-741.7400512695312 796,-674.9110717773438 C796,-674.9110717773438 796,-125.08895111083984 796,-125.08895111083984 C796,-58.25996017456055 741.7400512695312,-4 674.9110717773438,-4 C674.9110717773438,-4 125.08895111083984,-4 125.08895111083984,-4 C58.25996017456055,-4 4,-58.25996017456055 4,-125.08895111083984 C4,-125.08895111083984 4,-674.9110717773438 4,-674.9110717773438z"></path></g></g><g style="display: block;" transform="matrix(1,0,0,1,836,836)" opacity="1"><g opacity="1" transform="matrix(1,0,0,1,0,0)"><path fill="rgb(233,233,233)" fill-opacity="1" d=" M36,-481.9806213378906 C36,-637.6271362304688 162.3728790283203,-764 318.0193786621094,-764 C318.0193786621094,-764 481.9806213378906,-764 481.9806213378906,-764 C637.6271362304688,-764 764,-637.6271362304688 764,-481.9806213378906 C764,-481.9806213378906 764,-318.0193786621094 764,-318.0193786621094 C764,-162.3728790283203 637.6271362304688,-36 481.9806213378906,-36 C481.9806213378906,-36 318.0193786621094,-36 318.0193786621094,-36 C162.3728790283203,-36 36,-162.3728790283203 36,-318.0193786621094 C36,-318.0193786621094 36,-481.9806213378906 36,-481.9806213378906z"></path></g></g><g style="display: block;" transform="matrix(1,0,0,1,836,836)" opacity="1"><g opacity="1" transform="matrix(1,0,0,1,0,0)"><path fill="rgb(108,108,108)" fill-opacity="1" d=" M-796,546.5567016601562 C-796,467.8796691894531 -732.120361328125,404 -653.4432983398438,404 C-653.4432983398438,404 -146.5567169189453,404 -146.5567169189453,404 C-67.8796615600586,404 -4,467.8796691894531 -4,546.5567016601562 C-4,546.5567016601562 -4,653.4432983398438 -4,653.4432983398438 C-4,732.120361328125 -67.8796615600586,796 -146.5567169189453,796 C-146.5567169189453,796 -653.4432983398438,796 -653.4432983398438,796 C-732.120361328125,796 -796,732.120361328125 -796,653.4432983398438 C-796,653.4432983398438 -796,546.5567016601562 -796,546.5567016601562z"></path></g></g><g style="display: block;" transform="matrix(1,0,0,1,836,836)" opacity="1"><g opacity="1" transform="matrix(1,0,0,1,0,0)"><path fill="rgb(9,136,240)" fill-opacity="1" d=" M404,519.4874267578125 C404,455.74993896484375 455.74993896484375,404 519.4874267578125,404 C519.4874267578125,404 680.5125732421875,404 680.5125732421875,404 C744.2500610351562,404 796,455.74993896484375 796,519.4874267578125 C796,519.4874267578125 796,680.5125732421875 796,680.5125732421875 C796,744.2500610351562 744.2500610351562,796 680.5125732421875,796 C680.5125732421875,796 519.4874267578125,796 519.4874267578125,796 C455.74993896484375,796 404,744.2500610351562 404,680.5125732421875 C404,680.5125732421875 404,519.4874267578125 404,519.4874267578125z"></path></g></g><g style="display: none;" transform="matrix(1,0,0,1,836,836)" opacity="1"><g opacity="1" transform="matrix(1,0,0,1,0,0)"><path fill="rgb(0,136,71)" fill-opacity="1" d=" M-815.9309692382812,-745.8660888671875 C-815.9309692382812,-773.5349731445312 -793.4659423828125,-796 -765.7970581054688,-796 C-765.7970581054688,-796 -34.20298385620117,-796 -34.20298385620117,-796 C-6.534065246582031,-796 15.930951118469238,-773.5349731445312 15.930951118469238,-745.8660888671875 C15.930951118469238,-745.8660888671875 15.930951118469238,-54.133934020996094 15.930951118469238,-54.133934020996094 C15.930951118469238,-26.465017318725586 -6.534065246582031,-4 -34.20298385620117,-4 C-34.20298385620117,-4 -765.7970581054688,-4 -765.7970581054688,-4 C-793.4659423828125,-4 -815.9309692382812,-26.465017318725586 -815.9309692382812,-54.133934020996094 C-815.9309692382812,-54.133934020996094 -815.9309692382812,-745.8660888671875 -815.9309692382812,-745.8660888671875z"></path></g></g><g style="display: none;" transform="matrix(1,0,0,1,836,836)" opacity="1"><g opacity="1" transform="matrix(1,0,0,1,0,0)"><path fill="rgb(255,184,0)" fill-opacity="1" d=" M4,34 C4,6.40500020980835 26.405000686645508,-16 54,-16 C54,-16 746,-16 746,-16 C773.594970703125,-16 796,6.40500020980835 796,34 C796,34 796,766 796,766 C796,793.594970703125 773.594970703125,816 746,816 C746,816 54,816 54,816 C26.405000686645508,816 4,793.594970703125 4,766 C4,766 4,34 4,34z"></path></g></g><g style="display: none;" transform="matrix(1,0,0,1,836,836)" opacity="1"><g opacity="1" transform="matrix(1,0,0,1,0,0)"><path fill="rgb(108,108,108)" fill-opacity="1" d=" M-816,43.709999084472656 C-816,21.794050216674805 -798.2059326171875,4 -776.2899780273438,4 C-776.2899780273438,4 -43.709999084472656,4 -43.709999084472656,4 C-21.794050216674805,4 -4,21.794050216674805 -4,43.709999084472656 C-4,43.709999084472656 -4,356.2900085449219 -4,356.2900085449219 C-4,378.2059631347656 -21.794050216674805,396 -43.709999084472656,396 C-43.709999084472656,396 -776.2899780273438,396 -776.2899780273438,396 C-798.2059326171875,396 -816,378.2059631347656 -816,356.2900085449219 C-816,356.2900085449219 -816,43.709999084472656 -816,43.709999084472656z"></path></g></g><g style="display: none;" transform="matrix(1,0,0,1,836,836)" opacity="1"><g opacity="1" transform="matrix(1,0,0,1,0,0)"><path fill="rgb(233,233,233)" fill-opacity="1" d=" M-816,448.8800048828125 C-816,424.1107177734375 -795.8892822265625,404 -771.1199951171875,404 C-771.1199951171875,404 -428.8800048828125,404 -428.8800048828125,404 C-404.1107177734375,404 -384,424.1107177734375 -384,448.8800048828125 C-384,448.8800048828125 -384,751.1199951171875 -384,751.1199951171875 C-384,775.8892822265625 -404.1107177734375,796 -428.8800048828125,796 C-428.8800048828125,796 -771.1199951171875,796 -771.1199951171875,796 C-795.8892822265625,796 -816,775.8892822265625 -816,751.1199951171875 C-816,751.1199951171875 -816,448.8800048828125 -816,448.8800048828125z"></path></g></g><g style="display: none;" transform="matrix(1,0,0,1,836,836)" opacity="1"><g opacity="1" transform="matrix(1,0,0,1,0,0)"><path fill="rgb(255,87,59)" fill-opacity="1" d=" M-4,716 C-4,771.1900024414062 -48.810001373291016,816 -104,816 C-104,816 -696,816 -696,816 C-751.1900024414062,816 -796,771.1900024414062 -796,716 C-796,716 -796,-716 -796,-716 C-796,-771.1900024414062 -751.1900024414062,-816 -696,-816 C-696,-816 -104,-816 -104,-816 C-48.810001373291016,-816 -4,-771.1900024414062 -4,-716 C-4,-716 -4,716 -4,716z"></path></g></g><g style="display: none;" transform="matrix(1,0,0,1,836,836)" opacity="1"><g opacity="1" transform="matrix(1,0,0,1,0,0)"><path fill="rgb(233,233,233)" fill-opacity="1" d=" M4,-766 C4,-793.594970703125 26.405000686645508,-816 54,-816 C54,-816 766,-816 766,-816 C793.594970703125,-816 816,-793.594970703125 816,-766 C816,-766 816,-54 816,-54 C816,-26.405000686645508 793.594970703125,-4 766,-4 C766,-4 54,-4 54,-4 C26.405000686645508,-4 4,-26.405000686645508 4,-54 C4,-54 4,-766 4,-766z"></path></g></g><g style="display: none;" transform="matrix(1,0,0,1,836,836)" opacity="1"><g opacity="1" transform="matrix(1,0,0,1,0,0)"><path fill="rgb(9,136,240)" fill-opacity="1" d=" M4,44.709999084472656 C4,22.794050216674805 21.794050216674805,5 43.709999084472656,5 C43.709999084472656,5 776.2899780273438,5 776.2899780273438,5 C798.2059326171875,5 816,22.794050216674805 816,44.709999084472656 C816,44.709999084472656 816,357.2900085449219 816,357.2900085449219 C816,379.2059631347656 798.2059326171875,397 776.2899780273438,397 C776.2899780273438,397 43.709999084472656,397 43.709999084472656,397 C21.794050216674805,397 4,379.2059631347656 4,357.2900085449219 C4,357.2900085449219 4,44.709999084472656 4,44.709999084472656z"></path></g></g><g style="display: none;" transform="matrix(1,0,0,1,836,836)" opacity="1"><g opacity="1" transform="matrix(1,0,0,1,0,0)"><path fill="rgb(108,108,108)" fill-opacity="1" d=" M4,443.7099914550781 C4,421.7940368652344 21.794050216674805,404 43.709999084472656,404 C43.709999084472656,404 776.2899780273438,404 776.2899780273438,404 C798.2059326171875,404 816,421.7940368652344 816,443.7099914550781 C816,443.7099914550781 816,776.2899780273438 816,776.2899780273438 C816,798.2059326171875 798.2059326171875,816 776.2899780273438,816 C776.2899780273438,816 43.709999084472656,816 43.709999084472656,816 C21.794050216674805,816 4,798.2059326171875 4,776.2899780273438 C4,776.2899780273438 4,443.7099914550781 4,443.7099914550781z"></path></g></g><g style="display: none;" transform="matrix(1,0,0,1,836,836)" opacity="1"><g opacity="1" transform="matrix(1,0,0,1,0,0)"><path fill="rgb(9,136,240)" fill-opacity="1" d=" M-816,-696 C-816,-751.1900024414062 -771.1900024414062,-796 -716,-796 C-716,-796 -84,-796 -84,-796 C-28.809999465942383,-796 16,-751.1900024414062 16,-696 C16,-696 16,696 16,696 C16,751.1900024414062 -28.809999465942383,796 -84,796 C-84,796 -716,796 -716,796 C-771.1900024414062,796 -816,751.1900024414062 -816,696 C-816,696 -816,-696 -816,-696z"></path></g></g><g style="display: none;" transform="matrix(1,0,0,1,836,836)" opacity="1"><g opacity="1" transform="matrix(1,0,0,1,0,0)"><path fill="rgb(255,87,59)" fill-opacity="1" d=" M384,-751.1199951171875 C384,-775.8892822265625 404.1107177734375,-796 428.8800048828125,-796 C428.8800048828125,-796 770.1199951171875,-796 770.1199951171875,-796 C794.8892822265625,-796 815,-775.8892822265625 815,-751.1199951171875 C815,-751.1199951171875 815,-448.8800048828125 815,-448.8800048828125 C815,-424.1107177734375 794.8892822265625,-404 770.1199951171875,-404 C770.1199951171875,-404 428.8800048828125,-404 428.8800048828125,-404 C404.1107177734375,-404 384,-424.1107177734375 384,-448.8800048828125 C384,-448.8800048828125 384,-751.1199951171875 384,-751.1199951171875z"></path></g></g><g style="display: none;" transform="matrix(1,0,0,1,836,836)" opacity="1"><g opacity="1" transform="matrix(1,0,0,1,0,0)"><path fill="rgb(108,108,108)" fill-opacity="1" d=" M776.2899780273438,4 C798.2059326171875,4 816,21.794050216674805 816,43.709999084472656 C816,43.709999084472656 816,756.2899780273438 816,756.2899780273438 C816,778.2059326171875 798.2059326171875,796 776.2899780273438,796 C776.2899780273438,796 423.7099914550781,796 423.7099914550781,796 C401.7940368652344,796 384,778.2059326171875 384,756.2899780273438 C384,756.2899780273438 384,43.709999084472656 384,43.709999084472656 C384,21.794050216674805 401.7940368652344,4 423.7099914550781,4 C423.7099914550781,4 776.2899780273438,4 776.2899780273438,4z"></path></g></g><g style="display: none;" transform="matrix(1,0,0,1,836,836)" opacity="1"><g opacity="1" transform="matrix(1,0,0,1,0,0)"><path fill="rgb(233,233,233)" fill-opacity="1" d=" M-816,-751.1199951171875 C-816,-775.8892822265625 -795.8892822265625,-796 -771.1199951171875,-796 C-771.1199951171875,-796 -428.8800048828125,-796 -428.8800048828125,-796 C-404.1107177734375,-796 -384,-775.8892822265625 -384,-751.1199951171875 C-384,-751.1199951171875 -384,-448.8800048828125 -384,-448.8800048828125 C-384,-424.1107177734375 -404.1107177734375,-404 -428.8800048828125,-404 C-428.8800048828125,-404 -771.1199951171875,-404 -771.1199951171875,-404 C-795.8892822265625,-404 -816,-424.1107177734375 -816,-448.8800048828125 C-816,-448.8800048828125 -816,-751.1199951171875 -816,-751.1199951171875z"></path></g></g><g style="display: none;" transform="matrix(1,0,0,1,836,836)" opacity="1"><g opacity="1" transform="matrix(1,0,0,1,0,0)"><path fill="rgb(187,187,187)" fill-opacity="1" d=" M-16,-356.2900085449219 C-16,-378.2059631347656 1.7940510511398315,-396 23.709999084472656,-396 C23.709999084472656,-396 776.2899780273438,-396 776.2899780273438,-396 C798.2059326171875,-396 816,-378.2059631347656 816,-356.2900085449219 C816,-356.2900085449219 816,-43.709999084472656 816,-43.709999084472656 C816,-21.794050216674805 798.2059326171875,-4 776.2899780273438,-4 C776.2899780273438,-4 23.709999084472656,-4 23.709999084472656,-4 C1.7940510511398315,-4 -16,-21.794050216674805 -16,-43.709999084472656 C-16,-43.709999084472656 -16,-356.2900085449219 -16,-356.2900085449219z"></path></g></g><g style="display: none;" transform="matrix(1,0,0,1,836,836)" opacity="1"><g opacity="1" transform="matrix(1,0,0,1,0,0)"><path fill="rgb(255,184,0)" fill-opacity="1" d=" M-796,34 C-796,6.40500020980835 -773.594970703125,-16 -746,-16 C-746,-16 -54,-16 -54,-16 C-26.405000686645508,-16 -4,6.40500020980835 -4,34 C-4,34 -4,766 -4,766 C-4,793.594970703125 -26.405000686645508,816 -54,816 C-54,816 -746,816 -746,816 C-773.594970703125,816 -796,793.594970703125 -796,766 C-796,766 -796,34 -796,34z"></path></g></g><g style="display: none;" transform="matrix(1,0,0,1,836,836)" opacity="1"><g opacity="1" transform="matrix(1,0,0,1,0,0)"><path fill="rgb(233,233,233)" fill-opacity="1" d=" M-613,16 C-696.3369140625,16 -764,83.66310119628906 -764,167 C-764,167 -764,633 -764,633 C-764,716.3369140625 -696.3369140625,784 -613,784 C-613,784 -187,784 -187,784 C-103.66310119628906,784 -36,716.3369140625 -36,633 C-36,633 -36,167 -36,167 C-36,83.66310119628906 -103.66310119628906,16 -187,16 C-187,16 -613,16 -613,16z"></path></g></g><g style="display: none;" transform="matrix(1,0,0,1,836,836)" opacity="1"><g opacity="1" transform="matrix(1,0,0,1,0,0)"><path fill="rgb(0,136,71)" fill-opacity="1" d=" M4,54 C4,26.405000686645508 26.405000686645508,4 54,4 C54,4 766,4 766,4 C793.594970703125,4 816,26.405000686645508 816,54 C816,54 816,766 816,766 C816,793.594970703125 793.594970703125,816 766,816 C766,816 54,816 54,816 C26.405000686645508,816 4,793.594970703125 4,766 C4,766 4,54 4,54z"></path></g></g><g style="display: none;" transform="matrix(1,0,0,1,836,836)" opacity="1"><g opacity="1" transform="matrix(1,0,0,1,0,0)"><path fill="rgb(233,233,233)" fill-opacity="1" d=" M-816,-766 C-816,-793.594970703125 -793.594970703125,-816 -766,-816 C-766,-816 -54,-816 -54,-816 C-26.405000686645508,-816 -4,-793.594970703125 -4,-766 C-4,-766 -4,-54 -4,-54 C-4,-26.405000686645508 -26.405000686645508,-4 -54,-4 C-54,-4 -766,-4 -766,-4 C-793.594970703125,-4 -816,-26.405000686645508 -816,-54 C-816,-54 -816,-766 -816,-766z"></path></g></g><g style="display: none;" transform="matrix(1,0,0,1,836,836)" opacity="1"><g opacity="1" transform="matrix(1,0,0,1,0,0)"><path fill="rgb(9,136,240)" fill-opacity="1" d=" M8,-766 C8,-793.594970703125 30.405000686645508,-816 58,-816 C58,-816 770,-816 770,-816 C797.594970703125,-816 820,-793.594970703125 820,-766 C820,-766 820,-54 820,-54 C820,-26.405000686645508 797.594970703125,-4 770,-4 C770,-4 58,-4 58,-4 C30.405000686645508,-4 8,-26.405000686645508 8,-54 C8,-54 8,-766 8,-766z"></path></g></g><g style="display: none;" transform="matrix(1,0,0,1,836,836)" opacity="1"><g opacity="1" transform="matrix(1,0,0,1,0,0)"><path fill="rgb(108,108,108)" fill-opacity="1" d=" M-796,423.7099914550781 C-796,401.7940368652344 -778.2059326171875,384 -756.2899780273438,384 C-756.2899780273438,384 -43.709999084472656,384 -43.709999084472656,384 C-21.794050216674805,384 -4,401.7940368652344 -4,423.7099914550781 C-4,423.7099914550781 -4,776.2899780273438 -4,776.2899780273438 C-4,798.2059326171875 -21.794050216674805,816 -43.709999084472656,816 C-43.709999084472656,816 -756.2899780273438,816 -756.2899780273438,816 C-778.2059326171875,816 -796,798.2059326171875 -796,776.2899780273438 C-796,776.2899780273438 -796,423.7099914550781 -796,423.7099914550781z"></path></g></g><g style="display: none;" transform="matrix(1,0,0,1,836,836)" opacity="1"><g opacity="1" transform="matrix(1,0,0,1,0,0)"><path fill="rgb(255,184,0)" fill-opacity="1" d=" M4,54 C4,26.405000686645508 26.405000686645508,4 54,4 C54,4 766,4 766,4 C793.594970703125,4 816,26.405000686645508 816,54 C816,54 816,766 816,766 C816,793.594970703125 793.594970703125,816 766,816 C766,816 54,816 54,816 C26.405000686645508,816 4,793.594970703125 4,766 C4,766 4,54 4,54z"></path></g></g><g style="display: none;" transform="matrix(1,0,0,1,836,836)" opacity="1"><g opacity="1" transform="matrix(1,0,0,1,0,0)"><path fill="rgb(255,184,0)" fill-opacity="1" d=" M-816,-766 C-816,-793.594970703125 -793.594970703125,-816 -766,-816 C-766,-816 -54,-816 -54,-816 C-26.405000686645508,-816 -4,-793.594970703125 -4,-766 C-4,-766 -4,-54 -4,-54 C-4,-26.405000686645508 -26.405000686645508,-4 -54,-4 C-54,-4 -766,-4 -766,-4 C-793.594970703125,-4 -816,-26.405000686645508 -816,-54 C-816,-54 -816,-766 -816,-766z"></path></g></g><g style="display: none;" transform="matrix(1,0,0,1,836,836)" opacity="1"><g opacity="1" transform="matrix(1,0,0,1,0,0)"><path fill="rgb(233,233,233)" fill-opacity="1" d=" M-784,-633 C-784,-716.3369140625 -716.3369140625,-784 -633,-784 C-633,-784 -187,-784 -187,-784 C-103.66310119628906,-784 -36,-716.3369140625 -36,-633 C-36,-633 -36,-187 -36,-187 C-36,-103.66310119628906 -103.66310119628906,-36 -187,-36 C-187,-36 -633,-36 -633,-36 C-716.3369140625,-36 -784,-103.66310119628906 -784,-187 C-784,-187 -784,-633 -784,-633z"></path></g></g><g style="display: none;" transform="matrix(1,0,0,1,836,836)" opacity="1"><g opacity="1" transform="matrix(1,0,0,1,0,0)"><path fill="rgb(233,233,233)" fill-opacity="1" d=" M384,448.8800048828125 C384,424.1107177734375 404.1107177734375,404 428.8800048828125,404 C428.8800048828125,404 771.1199951171875,404 771.1199951171875,404 C795.8892822265625,404 816,424.1107177734375 816,448.8800048828125 C816,448.8800048828125 816,751.1199951171875 816,751.1199951171875 C816,775.8892822265625 795.8892822265625,796 771.1199951171875,796 C771.1199951171875,796 428.8800048828125,796 428.8800048828125,796 C404.1107177734375,796 384,775.8892822265625 384,751.1199951171875 C384,751.1199951171875 384,448.8800048828125 384,448.8800048828125z"></path></g></g><g style="display: none;" transform="matrix(1,0,0,1,836,836)" opacity="1"><g opacity="1" transform="matrix(1,0,0,1,0,0)"><path fill="rgb(108,108,108)" fill-opacity="1" d=" M356.2900085449219,-816 C378.2059631347656,-816 396,-798.2059326171875 396,-776.2899780273438 C396,-776.2899780273438 396,-23.709999084472656 396,-23.709999084472656 C396,-1.7940510511398315 378.2059631347656,16 356.2900085449219,16 C356.2900085449219,16 43.709999084472656,16 43.709999084472656,16 C21.794050216674805,16 4,-1.7940510511398315 4,-23.709999084472656 C4,-23.709999084472656 4,-776.2899780273438 4,-776.2899780273438 C4,-798.2059326171875 21.794050216674805,-816 43.709999084472656,-816 C43.709999084472656,-816 356.2900085449219,-816 356.2900085449219,-816z"></path></g></g><g style="display: none;" transform="matrix(1,0,0,1,836,836)" opacity="1"><g opacity="1" transform="matrix(1,0,0,1,0,0)"><path fill="rgb(9,136,240)" fill-opacity="1" d=" M-814,54 C-814,26.405000686645508 -791.594970703125,4 -764,4 C-764,4 -34,4 -34,4 C-6.40500020980835,4 16,26.405000686645508 16,54 C16,54 16,746 16,746 C16,773.594970703125 -6.40500020980835,796 -34,796 C-34,796 -764,796 -764,796 C-791.594970703125,796 -814,773.594970703125 -814,746 C-814,746 -814,54 -814,54z"></path></g></g></g></svg>