<svg viewBox="0 0 128 128" fill="none" xmlns="http://www.w3.org/2000/svg"><path fill-rule="evenodd" clip-rule="evenodd" d="M11 18.571A7.571 7.571 0 0 1 18.571 11h36.911a7.571 7.571 0 0 1 7.572 7.571v36.911a7.572 7.572 0 0 1-7.572 7.572h-36.91A7.571 7.571 0 0 1 11 55.482v-36.91Zm14.56 17.036 14.474-14.473-1.338-1.339-16.73 16.73 16.73 16.731 1.338-1.338L25.616 37.5H53.59v-1.893H25.561ZM64.947 76.304c0-6.273 5.084-11.358 11.357-11.358h29.339c6.272 0 11.357 5.085 11.357 11.358v29.339c0 6.272-5.085 11.357-11.357 11.357h-29.34c-6.272 0-11.356-5.085-11.356-11.357v-29.34Zm37.381 15.142H74.411v-1.892h27.973L87.91 75.08l1.339-1.338 16.73 16.73-16.73 16.731-1.339-1.339 14.418-14.418Z" fill="#202020"></path><path d="M64.947 37.027C64.947 22.653 76.599 11 90.972 11 105.348 11 117 22.653 117 37.027s-11.652 26.027-26.027 26.027c-14.374 0-26.026-11.653-26.026-26.027ZM11 90.973C11 76.6 22.653 64.946 37.027 64.946S63.054 76.6 63.054 90.973 51.4 117 37.027 117 11 105.347 11 90.973Z" fill="#202020"></path></svg>