<svg xmlns="http://www.w3.org/2000/svg" fill="none" viewBox="0 0 153 32" height="32" width="153">
<path fill="#363636" d="M82.3181 8.89563V13.9556C83.1461 12.8516 84.3421 12.2996 85.9061 12.2996C86.6421 12.2996 87.2861 12.3916 87.8381 12.6676C88.4821 12.8516 89.0341 13.2196 89.4941 13.6796C90.0461 14.1396 90.4141 14.6916 90.6901 15.3356C90.9661 15.9796 91.0581 16.8076 91.0581 17.7276C91.0581 18.7396 90.8741 19.6596 90.5061 20.5796C90.1381 21.4076 89.5861 22.1436 88.7581 22.6956C87.9301 23.2476 87.0101 23.5236 85.8141 23.5236C84.1581 23.5236 82.9621 22.9716 82.2261 21.9596V23.2476H79.0061V8.89563H82.3181ZM70.0821 12.0236C76.3381 12.0236 75.7861 18.7396 75.7861 18.7396H67.3221C67.6901 20.0276 68.7941 20.9476 70.3581 20.9476C72.2901 20.9476 73.3021 19.8436 73.3021 19.8436L75.1421 21.6836C74.2221 22.6036 72.9341 23.4316 70.3581 23.4316C66.4021 23.4316 64.2861 20.7636 64.2861 18.0036C64.2861 15.2436 65.7581 12.0236 70.0821 12.0236ZM147.454 11.9316C150.122 11.9316 151.87 12.9436 151.87 12.9436L150.674 15.3356C147.086 13.4956 145.522 14.7836 145.522 15.4276C145.522 16.0716 146.166 16.1636 148.65 16.6236C151.134 17.0836 152.238 18.0956 152.238 19.7516C152.238 21.4076 150.766 23.2476 147.27 23.2476C143.774 23.2476 142.21 22.1436 142.21 22.1436L143.314 19.8436C146.074 21.5916 149.202 21.0396 149.202 20.0276C149.202 19.2916 148.19 19.1076 147.086 18.9236L146.626 18.8316C146.442 18.8316 146.166 18.7396 145.982 18.7396C144.602 18.5556 142.486 17.7276 142.486 15.6116C142.394 13.4036 144.786 11.9316 147.454 11.9316ZM131.814 8.06763V16.7156L136.506 12.2996H140.278L135.678 16.7156L140.738 23.3396H136.966L133.47 18.8316L131.814 20.3956V23.3396H128.686V8.06763H131.814ZM120.682 11.9316C122.89 11.9316 124.822 13.0356 125.926 14.6916L123.258 16.2556C122.798 15.3356 121.786 14.6916 120.682 14.6916C119.026 14.6916 117.738 15.9796 117.738 17.6356C117.738 19.2916 119.026 20.5796 120.682 20.5796C121.786 20.5796 122.706 20.0276 123.166 19.1076L125.834 20.5796C124.73 22.1436 122.89 23.2476 120.682 23.2476C117.278 23.2476 114.61 20.6716 114.61 17.5436C114.518 14.4156 117.278 11.9316 120.682 11.9316ZM106.238 11.9316C109.642 11.9316 112.31 14.5076 112.31 17.6356C112.31 20.7636 109.55 23.3396 106.238 23.3396C102.834 23.3396 100.166 20.7636 100.166 17.6356C100.074 14.4156 102.834 11.9316 106.238 11.9316ZM50.9461 12.2076V23.1556H47.5421V12.2076H50.9461ZM44.5981 8.89563V11.6556H37.0541V15.3356H43.6781V18.0036H37.0541V23.1556H33.6501V8.89563H44.5981ZM58.2141 13.5876C58.2141 13.5876 59.4101 11.7476 61.8941 12.0236V15.0596C61.8941 15.0596 59.2261 14.4156 58.2141 17.1756V23.2476H54.9941V12.2076H58.0301L58.2141 13.5876ZM96.8541 8.06763V23.1556H93.4501V8.06763H96.8541ZM84.9861 14.6916C83.1461 14.6916 82.2261 15.7956 82.2261 18.0956C82.2261 18.9236 82.5021 19.6596 82.9621 20.3036C83.4221 20.8556 84.1581 21.1316 85.1701 21.1316C85.8141 21.1316 86.3661 20.9476 86.7341 20.6716C87.1021 20.3036 87.3781 19.9356 87.5621 19.4756C87.7461 19.0156 87.8381 18.4636 87.8381 18.0036C87.8381 17.0836 87.6541 16.2556 87.1941 15.7036C86.6421 14.9676 85.9061 14.6916 84.9861 14.6916ZM106.238 14.5996C104.582 14.5996 103.294 15.8876 103.294 17.5436C103.294 19.1996 104.582 20.4876 106.238 20.4876C107.894 20.4876 109.182 19.1996 109.182 17.5436C109.09 15.9796 107.802 14.5996 106.238 14.5996ZM70.0821 14.3236C68.4261 14.3236 67.5061 15.3356 67.2301 16.6236H72.7501C72.7501 16.3476 72.1981 14.3236 70.0821 14.3236ZM49.2901 7.05563C50.3941 7.05563 51.3141 7.88363 51.3141 8.89563C51.3141 9.90763 50.3941 10.7356 49.2901 10.7356C48.1861 10.7356 47.2661 9.90763 47.2661 8.89563C47.2661 7.88363 48.1861 7.05563 49.2901 7.05563Z"></path>
<path fill="#363636" d="M22.356 4.5C22.908 4.5 23.276 4.868 23.276 5.42V26.58C23.276 27.132 22.908 27.5 22.356 27.5H0.92C0.368 27.5 0 27.132 0 26.58V5.42C0 4.868 0.368 4.5 0.92 4.5H22.356ZM11.684 10.848L5.244 21.06H18.216L11.684 10.848Z"></path>
</svg>
