<svg xmlns="http://www.w3.org/2000/svg" fill="none" viewBox="0 0 84 32" height="32" width="84">
<g clip-path="url(#clip0_347_68745)">
<path fill="#363636" d="M71.724 28.2369V29.9996H83.836V22.0495H82.0713V28.2369H71.724ZM71.724 2V3.76278H82.0713V9.95051H83.836V2H71.724ZM65.4778 15.6371V11.541H68.2463C69.596 11.541 70.0805 11.9902 70.0805 13.2176V13.9434C70.0805 15.205 69.6133 15.6371 68.2463 15.6371H65.4778ZM69.8725 16.3629C71.1356 16.0345 72.0178 14.859 72.0178 13.4593C72.0178 12.578 71.6719 11.7827 71.0144 11.1431C70.184 10.3479 69.0763 9.95051 67.6404 9.95051H63.7473V22.0491H65.4778V17.2271H68.0733C69.4055 17.2271 69.9421 17.7801 69.9421 19.1631V22.0495H71.7067V19.4396C71.7067 17.5384 71.257 16.8126 69.8725 16.6051V16.3629ZM55.3038 16.7603H60.6332V15.1703H55.3038V11.5405H61.152V9.95051H53.5387V22.0491H61.4117V20.459H55.3038V16.7603ZM49.5069 17.3999V18.2294C49.5069 19.9751 48.8666 20.5456 47.2577 20.5456H46.8771C45.2675 20.5456 44.489 20.0269 44.489 17.6245V14.3751C44.489 11.9555 45.3023 11.454 46.9114 11.454H47.2573C48.8318 11.454 49.3336 12.0417 49.3507 13.6664H51.254C51.0812 11.2812 49.4894 9.77776 47.1015 9.77776C45.9424 9.77776 44.9733 10.1408 44.2466 10.8319C43.1566 11.8518 42.5509 13.5803 42.5509 15.9998C42.5509 18.3332 43.0702 20.0616 44.1427 21.1329C44.8694 21.8416 45.8732 22.2218 46.8594 22.2218C47.8975 22.2218 48.8495 21.8068 49.3336 20.9083H49.5756V22.0491H51.1674V15.8099H46.4783V17.3999H49.5069ZM34.246 11.5405H36.1323C37.9147 11.5405 38.8837 11.9898 38.8837 14.4098V17.5898C38.8837 20.0094 37.9147 20.459 36.1323 20.459H34.246V11.5405ZM36.2876 22.0495C39.5927 22.0495 40.821 19.5434 40.821 16.0002C40.821 12.4052 39.5059 9.95093 36.2528 9.95093H32.5153V22.0495H36.2876ZM24.1584 16.7603H29.4878V15.1703H24.1584V11.5405H30.0066V9.95051H22.393V22.0491H30.2663V20.459H24.1584V16.7603ZM13.9496 9.95051H12.1849V22.0491H20.1443V20.459H13.9496V9.95051ZM0.0551758 22.0495V30H12.1673V28.2369H1.81993V22.0495H0.0551758ZM0.0551758 2V9.95051H1.81993V3.76278H12.1673V2H0.0551758Z"></path>
</g>
<defs>
<clipPath id="clip0_347_68745">
<rect transform="translate(0.0551758 2)" fill="white" height="28" width="83.7812"></rect>
</clipPath>
</defs>
</svg>
