<svg xmlns="http://www.w3.org/2000/svg" fill="none" viewBox="0 0 155 32" height="32" width="155">
<g clip-path="url(#clip0_351_68981)">
<path fill="#363636" d="M30.0934 22.5724C29.7356 22.5724 29.4827 22.4968 29.3346 22.3457C29.1989 22.1945 29.131 21.9551 29.131 21.6276V10.6865C29.131 10.359 29.205 10.1196 29.3531 9.96843C29.5012 9.80465 29.7479 9.72276 30.0934 9.72276H34.6275C36.3547 9.72276 37.6255 10.0944 38.4399 10.8377C39.2542 11.5809 39.6613 12.6895 39.6613 14.1635C39.6613 15.6248 39.2542 16.7271 38.4399 17.4703C37.6379 18.2011 36.3671 18.5664 34.6275 18.5664H32.8694V21.6276C32.8694 21.9551 32.7954 22.1945 32.6473 22.3457C32.4992 22.4968 32.2463 22.5724 31.8885 22.5724H30.0934ZM34.3314 15.8263C34.8373 15.8263 35.2259 15.6878 35.4974 15.4106C35.781 15.1335 35.923 14.7177 35.923 14.1635C35.923 13.5965 35.781 13.1745 35.4974 12.8974C35.2259 12.6202 34.8373 12.4817 34.3314 12.4817H32.8694V15.8263H34.3314Z"></path>
<path fill="#363636" d="M44.0318 22.8557C42.8722 22.8557 41.9407 22.4778 41.2374 21.722C40.5465 20.9535 40.201 19.8764 40.201 18.4906C40.201 17.4324 40.4355 16.5064 40.9042 15.7128C41.3855 14.9192 42.0579 14.3082 42.9215 13.8799C43.7975 13.439 44.803 13.2185 45.938 13.2185C46.8758 13.2185 47.7024 13.3256 48.418 13.5397C49.1459 13.7413 49.8121 14.0373 50.4166 14.4279V21.9865C50.4166 22.2259 50.3735 22.3833 50.2871 22.4589C50.2007 22.5345 50.028 22.5723 49.769 22.5723H47.8812C47.7455 22.5723 47.6407 22.5534 47.5667 22.5155C47.4926 22.4652 47.431 22.3896 47.3816 22.2888L47.141 21.722C46.7832 22.1124 46.3514 22.396 45.8456 22.5723C45.3521 22.7613 44.7475 22.8557 44.0318 22.8557ZM45.4199 20.2858C45.9011 20.2858 46.2773 20.1661 46.5487 19.9268C46.8202 19.6874 46.9559 19.3473 46.9559 18.9063V15.9585C46.7216 15.8451 46.4254 15.7884 46.0676 15.7884C45.4137 15.7884 44.8893 16.0215 44.4946 16.4876C44.1121 16.9537 43.9209 17.6088 43.9209 18.4528C43.9209 19.6748 44.4205 20.2858 45.4199 20.2858Z"></path>
<path fill="#363636" d="M52.9922 22.5723C52.6343 22.5723 52.3814 22.4966 52.2334 22.3456C52.0853 22.1944 52.0114 21.955 52.0114 21.6274V14.0877C52.0114 13.861 52.0483 13.7098 52.1223 13.6342C52.2087 13.546 52.3814 13.5019 52.6406 13.5019H54.5468C54.6947 13.5019 54.8058 13.5271 54.8798 13.5775C54.9661 13.6153 55.0155 13.6909 55.0279 13.8043L55.1203 14.3712C55.4659 14.0184 55.9162 13.7413 56.4713 13.5397C57.0389 13.3256 57.6681 13.2185 58.3591 13.2185C59.3584 13.2185 60.1665 13.5082 60.7834 14.0877C61.4003 14.6546 61.7087 15.4987 61.7087 16.6199V21.6274C61.7087 21.955 61.6347 22.1944 61.4867 22.3456C61.3509 22.4966 61.1041 22.5723 60.7464 22.5723H58.9513C58.5935 22.5723 58.3344 22.4966 58.174 22.3456C58.0259 22.1944 57.9519 21.955 57.9519 21.6274V16.8655C57.9519 16.4876 57.8717 16.2168 57.7114 16.053C57.5509 15.8892 57.298 15.8073 56.9526 15.8073C56.5824 15.8073 56.2863 15.9081 56.0642 16.1096C55.8545 16.3112 55.7497 16.5884 55.7497 16.9412V21.6274C55.7497 21.955 55.6756 22.1944 55.5276 22.3456C55.3919 22.4966 55.1451 22.5723 54.7873 22.5723H52.9922Z"></path>
<path fill="#363636" d="M68.2502 22.8557C66.523 22.8557 65.1905 22.4462 64.2527 21.6274C63.3151 20.8086 62.8463 19.6182 62.8463 18.056C62.8463 17.0986 63.0622 16.2546 63.4939 15.5239C63.9258 14.7932 64.5489 14.2263 65.3632 13.8232C66.1898 13.4201 67.1645 13.2185 68.2872 13.2185C69.1385 13.2185 69.8541 13.3004 70.434 13.4642C71.0262 13.6279 71.5505 13.8799 72.007 14.22C72.1427 14.3082 72.2106 14.4216 72.2106 14.5602C72.2106 14.6609 72.1612 14.7932 72.0625 14.957L71.3037 16.2986C71.2174 16.475 71.1125 16.5632 70.9892 16.5632C70.9151 16.5632 70.7979 16.5128 70.6375 16.412C70.3044 16.1979 69.9898 16.0404 69.6937 15.9396C69.4099 15.8388 69.0521 15.7884 68.6204 15.7884C68.0034 15.7884 67.5038 15.99 67.1213 16.3931C66.7511 16.7962 66.5661 17.3505 66.5661 18.056C66.5661 18.7741 66.7573 19.3284 67.1398 19.7188C67.5223 20.0968 68.0466 20.2858 68.7128 20.2858C69.1076 20.2858 69.4655 20.2291 69.7863 20.1157C70.1071 20.0024 70.434 19.8449 70.7671 19.6433C70.9398 19.5425 71.0632 19.4921 71.1373 19.4921C71.2482 19.4921 71.347 19.5803 71.4333 19.7567L72.2661 21.2117C72.3278 21.3377 72.3587 21.4385 72.3587 21.514C72.3587 21.6274 72.2846 21.7345 72.1366 21.8353C71.6184 22.1755 71.0508 22.4274 70.434 22.5912C69.8294 22.7675 69.1015 22.8557 68.2502 22.8557Z"></path>
<path fill="#363636" d="M77.051 22.8557C75.8912 22.8557 74.9597 22.4778 74.2565 21.722C73.5656 20.9535 73.2201 19.8764 73.2201 18.4906C73.2201 17.4324 73.4545 16.5064 73.9234 15.7128C74.4045 14.9192 75.0769 14.3082 75.9406 13.8799C76.8166 13.439 77.8221 13.2185 78.9572 13.2185C79.8948 13.2185 80.7215 13.3256 81.437 13.5397C82.1649 13.7413 82.8312 14.0373 83.4358 14.4279V21.9865C83.4358 22.2259 83.3926 22.3833 83.3062 22.4589C83.2199 22.5345 83.0472 22.5723 82.788 22.5723H80.9004C80.7647 22.5723 80.6597 22.5534 80.5857 22.5155C80.5118 22.4652 80.45 22.3896 80.4007 22.2888L80.1601 21.722C79.8023 22.1124 79.3705 22.396 78.8646 22.5723C78.3711 22.7613 77.7666 22.8557 77.051 22.8557ZM78.439 20.2858C78.9202 20.2858 79.2965 20.1661 79.5679 19.9268C79.8393 19.6874 79.975 19.3473 79.975 18.9063V15.9585C79.7406 15.8451 79.4446 15.7884 79.0867 15.7884C78.4329 15.7884 77.9085 16.0215 77.5136 16.4876C77.1312 16.9537 76.9399 17.6088 76.9399 18.4528C76.9399 19.6748 77.4396 20.2858 78.439 20.2858Z"></path>
<path fill="#363636" d="M95.0609 21.8543C95.1472 21.9551 95.1904 22.0685 95.1904 22.1945C95.1904 22.3078 95.1535 22.4023 95.0794 22.4779C95.0054 22.5409 94.9067 22.5724 94.7833 22.5724H91.9148C91.7421 22.5724 91.6125 22.5598 91.5261 22.5347C91.4521 22.4968 91.3719 22.4275 91.2856 22.3268L88.7686 18.8309V21.6276C88.7686 21.9551 88.6947 22.1945 88.5466 22.3457C88.3985 22.4968 88.1456 22.5724 87.7878 22.5724H85.9927C85.6349 22.5724 85.382 22.4968 85.2339 22.3457C85.0982 22.1945 85.0303 21.9551 85.0303 21.6276V10.6865C85.0303 10.359 85.1043 10.1196 85.2524 9.96843C85.4005 9.80465 85.6473 9.72276 85.9927 9.72276H87.7878C88.1456 9.72276 88.3985 9.80465 88.5466 9.96843C88.6947 10.1196 88.7686 10.359 88.7686 10.6865V17.0168L91.2116 13.7666C91.2856 13.6658 91.3658 13.5965 91.4521 13.5588C91.5385 13.521 91.6681 13.5021 91.8408 13.5021H94.7093C94.8327 13.5021 94.9251 13.5399 94.9869 13.6154C95.0609 13.6784 95.098 13.7666 95.098 13.88C95.098 14.006 95.0547 14.1194 94.9684 14.2201L91.8038 17.9239L95.0609 21.8543Z"></path>
<path fill="#363636" d="M101.07 22.8557C100.034 22.8557 99.1082 22.6794 98.294 22.3267C97.4921 21.9739 96.8566 21.4447 96.3878 20.7394C95.919 20.0339 95.6846 19.1709 95.6846 18.1505C95.6846 16.5506 96.1287 15.3286 97.0171 14.4846C97.9053 13.6405 99.1823 13.2185 100.848 13.2185C102.477 13.2185 103.71 13.6342 104.549 14.4657C105.401 15.2845 105.826 16.4246 105.826 17.8859C105.826 18.5158 105.555 18.8308 105.012 18.8308H99.2008C99.2008 19.3724 99.3981 19.7882 99.793 20.0779C100.2 20.3677 100.811 20.5125 101.625 20.5125C102.131 20.5125 102.55 20.4685 102.884 20.3803C103.229 20.2795 103.575 20.1347 103.92 19.9457C104.068 19.8827 104.167 19.8512 104.216 19.8512C104.327 19.8512 104.42 19.9268 104.494 20.0779L105.123 21.2873C105.185 21.4133 105.215 21.5078 105.215 21.5708C105.215 21.6841 105.141 21.7913 104.993 21.892C104.488 22.2321 103.914 22.4778 103.272 22.629C102.631 22.7802 101.897 22.8557 101.07 22.8557ZM102.495 16.96C102.495 16.4813 102.359 16.1096 102.088 15.8451C101.816 15.5806 101.409 15.4483 100.866 15.4483C100.324 15.4483 99.9102 15.5869 99.6265 15.864C99.3427 16.1286 99.2008 16.4939 99.2008 16.96H102.495Z"></path>
<path fill="#363636" d="M112.169 22.8557C111.133 22.8557 110.152 22.7487 109.227 22.5346C108.302 22.3077 107.555 21.9928 106.988 21.5897C106.778 21.4511 106.673 21.3062 106.673 21.1551C106.673 21.0543 106.71 20.9472 106.784 20.8338L107.691 19.3599C107.79 19.2087 107.888 19.1332 107.987 19.1332C108.049 19.1332 108.153 19.1772 108.302 19.2654C108.758 19.53 109.276 19.7441 109.856 19.9078C110.436 20.0717 111.01 20.1536 111.577 20.1536C112.157 20.1536 112.583 20.0654 112.854 19.889C113.138 19.7126 113.28 19.4292 113.28 19.0386C113.28 18.6607 113.126 18.3647 112.817 18.1506C112.521 17.9363 111.96 17.6656 111.133 17.338C109.887 16.8593 108.912 16.3239 108.209 15.7318C107.518 15.1271 107.173 14.3082 107.173 13.2752C107.173 12.0281 107.611 11.0769 108.487 10.4218C109.363 9.76677 110.528 9.43922 111.984 9.43922C112.996 9.43922 113.86 9.53371 114.575 9.72267C115.303 9.89904 115.92 10.1762 116.426 10.5541C116.636 10.7179 116.74 10.8691 116.74 11.0076C116.74 11.0958 116.703 11.1966 116.629 11.31L115.723 12.7839C115.612 12.9351 115.513 13.0107 115.426 13.0107C115.365 13.0107 115.26 12.9666 115.112 12.8784C114.396 12.3997 113.545 12.1603 112.558 12.1603C112.027 12.1603 111.62 12.2485 111.337 12.4249C111.053 12.6012 110.911 12.891 110.911 13.2941C110.911 13.5713 110.985 13.798 111.133 13.9744C111.281 14.1508 111.478 14.3082 111.725 14.4468C111.984 14.5728 112.379 14.7366 112.91 14.9381L113.261 15.0704C114.174 15.4357 114.89 15.7885 115.408 16.1287C115.939 16.4561 116.339 16.8655 116.611 17.3569C116.882 17.8355 117.018 18.4402 117.018 19.171C117.018 20.2922 116.605 21.1866 115.778 21.8542C114.964 22.5219 113.761 22.8557 112.169 22.8557Z"></path>
<path fill="#363636" d="M120.95 22.5724C120.765 22.5724 120.623 22.5409 120.524 22.4778C120.426 22.4149 120.352 22.2889 120.302 22.0999L117.915 13.9366C117.89 13.8611 117.878 13.8044 117.878 13.7666C117.878 13.5902 118.001 13.502 118.248 13.502H120.691C120.852 13.502 120.968 13.5335 121.043 13.5965C121.117 13.6469 121.166 13.7351 121.19 13.8611L122.19 18.1506L123.448 14.6925C123.511 14.5413 123.572 14.4405 123.633 14.3902C123.708 14.3272 123.831 14.2957 124.004 14.2957H125.169C125.342 14.2957 125.46 14.3272 125.521 14.3902C125.596 14.4405 125.663 14.5413 125.725 14.6925L126.965 18.1506L127.983 13.8611C128.019 13.7351 128.068 13.6469 128.131 13.5965C128.192 13.5335 128.304 13.502 128.463 13.502H130.926C131.172 13.502 131.295 13.5902 131.295 13.7666C131.295 13.8044 131.283 13.8611 131.258 13.9366L128.853 22.0999C128.803 22.2889 128.729 22.4149 128.63 22.4778C128.544 22.5409 128.408 22.5724 128.223 22.5724H126.41C126.237 22.5724 126.107 22.5409 126.021 22.4778C125.934 22.4023 125.861 22.2764 125.799 22.0999L124.577 18.6796L123.356 22.0999C123.306 22.2764 123.232 22.4023 123.134 22.4778C123.047 22.5409 122.919 22.5724 122.746 22.5724H120.95Z"></path>
<path fill="#363636" d="M135.986 22.8557C134.826 22.8557 133.896 22.4778 133.192 21.722C132.501 20.9535 132.155 19.8764 132.155 18.4906C132.155 17.4324 132.39 16.5064 132.859 15.7128C133.34 14.9192 134.012 14.3082 134.876 13.8799C135.752 13.439 136.758 13.2185 137.892 13.2185C138.83 13.2185 139.657 13.3256 140.372 13.5397C141.1 13.7413 141.767 14.0373 142.371 14.4279V21.9865C142.371 22.2259 142.328 22.3833 142.241 22.4589C142.155 22.5345 141.983 22.5723 141.724 22.5723H139.836C139.7 22.5723 139.595 22.5534 139.521 22.5155C139.447 22.4652 139.385 22.3896 139.336 22.2888L139.096 21.722C138.738 22.1124 138.306 22.396 137.8 22.5723C137.306 22.7613 136.702 22.8557 135.986 22.8557ZM137.375 20.2858C137.855 20.2858 138.232 20.1661 138.504 19.9268C138.775 19.6874 138.911 19.3473 138.911 18.9063V15.9585C138.675 15.8451 138.38 15.7884 138.022 15.7884C137.368 15.7884 136.844 16.0215 136.449 16.4876C136.067 16.9537 135.875 17.6088 135.875 18.4528C135.875 19.6748 136.376 20.2858 137.375 20.2858Z"></path>
<path fill="#363636" d="M144.928 26.3894C144.57 26.3894 144.318 26.3138 144.169 26.1626C144.033 26.0114 143.966 25.7721 143.966 25.4445V14.6168C144.521 14.2137 145.219 13.8799 146.057 13.6153C146.896 13.3508 147.772 13.2185 148.685 13.2185C152.411 13.2185 154.274 14.831 154.274 18.056C154.274 19.5174 153.879 20.6826 153.09 21.5519C152.3 22.4211 151.184 22.8557 149.74 22.8557C149.333 22.8557 148.938 22.8053 148.555 22.7045C148.185 22.6038 147.876 22.4652 147.63 22.2888V25.4445C147.63 25.7721 147.556 26.0114 147.408 26.1626C147.26 26.3138 147.007 26.3894 146.649 26.3894H144.928ZM148.944 20.3046C149.475 20.3046 149.87 20.1032 150.128 19.7C150.4 19.2842 150.535 18.73 150.535 18.0371C150.535 17.2183 150.376 16.645 150.055 16.3175C149.746 15.9774 149.265 15.8073 148.611 15.8073C148.191 15.8073 147.858 15.864 147.612 15.9774V18.982C147.612 19.4103 147.729 19.7378 147.963 19.9646C148.198 20.1913 148.525 20.3046 148.944 20.3046Z"></path>
<path fill="#363636" d="M12.1439 28.1534C8.63785 28.1507 5.81369 27.2917 3.84042 25.7488C1.84348 24.1873 0.784119 21.9714 0.784119 19.464C0.784119 17.0481 1.84116 15.3061 3.0372 14.1285C3.97452 13.2057 5.00887 12.6146 5.72911 12.2747C5.56623 11.7643 5.36303 11.0962 5.18123 10.406C4.93797 9.48258 4.69932 8.39912 4.69932 7.60515C4.69932 6.6654 4.89998 5.72162 5.44103 4.98826C6.01266 4.21346 6.87323 3.79839 7.9085 3.79839C8.71762 3.79839 9.40455 4.10484 9.94234 4.6335C10.4564 5.13883 10.7985 5.80992 11.0348 6.5095C11.4499 7.73877 11.6115 9.28315 11.6568 10.8244H12.6485C12.6939 9.28315 12.8554 7.73877 13.2706 6.5095C13.5068 5.80992 13.8488 5.13883 14.363 4.6335C14.9008 4.10484 15.5876 3.79839 16.3967 3.79839C17.4321 3.79839 18.2926 4.21346 18.8643 4.98826C19.4053 5.72162 19.606 6.6654 19.606 7.60515C19.606 8.39912 19.3673 9.48258 19.1241 10.406C18.9422 11.0962 18.739 11.7643 18.5762 12.2747C19.2964 12.6146 20.3308 13.2057 21.2681 14.1285C22.4641 15.3061 23.5211 17.0481 23.5211 19.464C23.5211 21.9714 22.4618 24.1873 20.4648 25.7488C18.4916 27.2917 15.6674 28.1507 12.1614 28.1534H12.1439ZM9.4167 18.2558C9.4167 19.4475 8.87072 20.0682 8.19722 20.0682C7.5237 20.0682 6.97772 19.4475 6.97772 18.2558C6.97772 17.0641 7.5237 16.4435 8.19722 16.4435C8.87072 16.4435 9.4167 17.0641 9.4167 18.2558ZM16.1239 20.068C16.7974 20.068 17.3434 19.4474 17.3434 18.2557C17.3434 17.064 16.7974 16.4434 16.1239 16.4434C15.4504 16.4434 14.9044 17.064 14.9044 18.2557C14.9044 19.4474 15.4504 20.068 16.1239 20.068Z" clip-rule="evenodd" fill-rule="evenodd"></path>
</g>
<defs>
<clipPath id="clip0_351_68981">
<rect transform="translate(0.42749 3.79839)" fill="white" height="24.4032" width="153.846"></rect>
</clipPath>
</defs>
</svg>
